<mxfile host="app.diagrams.net" agent="Mozilla/5.0 (Macintosh; Intel Mac OS X 10_15_7) AppleWebKit/537.36 (KHTML, like Gecko) Chrome/135.0.0.0 Safari/537.36" version="26.2.14">
  <diagram name="Página-1" id="OPH9KYn_CsXsczrEvYEz">
    <mxGraphModel dx="1426" dy="806" grid="1" gridSize="10" guides="1" tooltips="1" connect="1" arrows="1" fold="1" page="1" pageScale="1" pageWidth="827" pageHeight="1169" math="0" shadow="0">
      <root>
        <mxCell id="0" />
        <mxCell id="1" parent="0" />
        <mxCell id="shOIpUSCTICnsK9YS_UU-1" value="USUARIO" style="whiteSpace=wrap;html=1;align=center;fillColor=#dae8fc;strokeColor=#6c8ebf;" vertex="1" parent="1">
          <mxGeometry x="140" y="320" width="100" height="40" as="geometry" />
        </mxCell>
        <mxCell id="shOIpUSCTICnsK9YS_UU-2" value="Captura" style="shape=rhombus;perimeter=rhombusPerimeter;whiteSpace=wrap;html=1;align=center;fillColor=#ffe6cc;strokeColor=#d79b00;" vertex="1" parent="1">
          <mxGeometry x="690" y="190" width="100" height="50" as="geometry" />
        </mxCell>
        <mxCell id="shOIpUSCTICnsK9YS_UU-3" value="Malware,&lt;div&gt;CyberDefense,&lt;/div&gt;&lt;div&gt;CyberAttack&lt;/div&gt;" style="shape=hexagon;perimeter=hexagonPerimeter2;whiteSpace=wrap;html=1;fixedSize=1;fillColor=#e1d5e7;strokeColor=#9673a6;" vertex="1" parent="1">
          <mxGeometry x="665" y="85" width="90" height="75" as="geometry" />
        </mxCell>
        <mxCell id="shOIpUSCTICnsK9YS_UU-5" value="COMPARACIÓN" style="whiteSpace=wrap;html=1;align=center;fillColor=#dae8fc;strokeColor=#6c8ebf;" vertex="1" parent="1">
          <mxGeometry x="140" y="390" width="100" height="40" as="geometry" />
        </mxCell>
        <mxCell id="shOIpUSCTICnsK9YS_UU-8" value="1 : M" style="text;strokeColor=none;fillColor=none;spacingLeft=4;spacingRight=4;overflow=hidden;rotatable=0;points=[[0,0.5],[1,0.5]];portConstraint=eastwest;fontSize=12;whiteSpace=wrap;html=1;fontStyle=1" vertex="1" parent="1">
          <mxGeometry x="450" y="140" width="40" height="30" as="geometry" />
        </mxCell>
        <mxCell id="shOIpUSCTICnsK9YS_UU-14" value="Password" style="ellipse;whiteSpace=wrap;html=1;align=center;fillColor=#d5e8d4;strokeColor=#82b366;" vertex="1" parent="1">
          <mxGeometry x="364" y="30" width="100" height="40" as="geometry" />
        </mxCell>
        <mxCell id="shOIpUSCTICnsK9YS_UU-43" value="VALIDACION-TEAM" style="whiteSpace=wrap;html=1;align=center;fillColor=#dae8fc;strokeColor=#6c8ebf;" vertex="1" parent="1">
          <mxGeometry x="140" y="460" width="100" height="40" as="geometry" />
        </mxCell>
        <mxCell id="shOIpUSCTICnsK9YS_UU-44" value="DETALLES" style="whiteSpace=wrap;html=1;align=center;fillColor=#dae8fc;strokeColor=#6c8ebf;" vertex="1" parent="1">
          <mxGeometry x="140" y="530" width="100" height="40" as="geometry" />
        </mxCell>
      </root>
    </mxGraphModel>
  </diagram>
</mxfile>
